<svg width="34" height="30" viewBox="0 0 34 30" fill="none" xmlns="http://www.w3.org/2000/svg">
<path d="M28.6299 0H5.37009C2.40433 0 0 2.45793 0 5.49115V18.5177C0 21.5509 2.40433 24.0088 5.37009 24.0088H13.3824L16.1166 28.5449C16.1166 28.5449 16.1467 28.5983 16.2054 28.6742C16.3656 28.9538 16.6606 29.1429 17 29.1429C17.3394 29.1429 17.6312 28.9554 17.7914 28.6791C17.8596 28.5967 17.8834 28.5433 17.8834 28.5433L20.6176 24.0072H28.6299C31.5957 24.0072 34 21.5493 34 18.5161V5.49115C34 2.45793 31.5957 0 28.6299 0Z" fill="#120F20"/>
<path d="M7.4967 9.55584C7.4967 9.55584 6.55039 9.55584 5.69143 10.3922V7.02588H3.56749V15.871H5.71246V15.1787C5.71246 15.1787 6.21877 16.0927 7.49508 16.0927C7.49508 16.0927 10.4877 15.9827 10.4877 12.7911C10.4877 12.7911 10.3777 9.55584 7.49508 9.55584H7.4967ZM7.0292 14.2243C6.27539 14.2243 5.66393 13.6128 5.66393 12.859C5.66393 12.1052 6.27539 11.4954 7.0292 11.4954C7.78302 11.4954 8.39286 12.1068 8.39286 12.859C8.39286 13.6112 7.7814 14.2243 7.0292 14.2243Z" fill="white"/>
<path d="M11.1703 6.82666V8.87295C11.1703 8.87295 12.1393 8.82928 12.1393 10.6329V15.8692H14.1856V10.1493C14.1856 10.1493 14.2729 6.82666 11.1703 6.82666Z" fill="white"/>
<path d="M19.1905 9.5835C19.1905 9.5835 15.6819 9.5835 15.6819 12.8592C15.6819 12.8592 15.5686 16.0912 19.1905 16.0912C19.1905 16.0912 22.78 16.0863 22.78 12.8592C22.78 12.8592 22.8965 9.5835 19.1905 9.5835ZM19.1905 14.2245C18.4367 14.2245 17.8252 13.613 17.8252 12.8592C17.8252 12.1054 18.4367 11.4955 19.1905 11.4955C19.9443 11.4955 20.5541 12.107 20.5541 12.8592C20.5541 13.6114 19.9427 14.2245 19.1905 14.2245Z" fill="white"/>
<path d="M28.6374 9.79827V10.3919C28.6374 10.3919 28.0276 9.58313 26.8564 9.58313C26.8564 9.58313 23.8525 9.45695 23.8525 12.8362C23.8525 12.8362 23.8185 15.9857 26.7739 15.9857C26.7739 15.9857 27.979 16.0342 28.6374 15.1769V15.6719C28.6374 15.6719 28.7862 17.2232 27.2851 17.2232H26.7739V19.1045H27.5989C27.5989 19.1045 30.7015 19.1384 30.7015 15.7883V9.79827H28.639H28.6374ZM27.3692 14.2241C26.6154 14.2241 26.0055 13.6126 26.0055 12.8588C26.0055 12.105 26.6154 11.4952 27.3692 11.4952C28.123 11.4952 28.7329 12.1066 28.7329 12.8588C28.7329 13.611 28.1214 14.2241 27.3692 14.2241Z" fill="white"/>
</svg>
