<svg width="34" height="34" viewBox="0 0 34 34" fill="none" xmlns="http://www.w3.org/2000/svg">
<rect width="34" height="34" rx="17" fill="#120F20"/>
<path d="M17 8.87041C19.6477 8.87041 19.9603 8.87974 21.0054 8.92873C21.9712 8.97305 22.496 9.13401 22.846 9.26932C23.3078 9.44894 23.6391 9.66356 23.9867 10.0111C24.3343 10.3587 24.5489 10.6876 24.7285 11.1519C24.8638 11.5018 25.0248 12.0267 25.0691 12.9924C25.1158 14.0375 25.1274 14.3525 25.1274 16.9978C25.1274 19.6432 25.1181 19.9581 25.0691 21.0032C25.0248 21.969 24.8638 22.4939 24.7285 22.8438C24.5489 23.3057 24.3343 23.6369 23.9867 23.9845C23.6391 24.3321 23.3102 24.5467 22.846 24.7263C22.496 24.8616 21.9712 25.0226 21.0054 25.0669C19.9603 25.1136 19.6477 25.1253 17 25.1253C14.3523 25.1253 14.0397 25.1159 12.9946 25.0669C12.0288 25.0226 11.504 24.8616 11.154 24.7263C10.6921 24.5467 10.3609 24.3321 10.0133 23.9845C9.66572 23.6369 9.4511 23.308 9.27148 22.8438C9.13618 22.4939 8.97522 21.969 8.93089 21.0032C8.88424 19.9581 8.87257 19.6432 8.87257 16.9978C8.87257 14.3525 8.88191 14.0375 8.93089 12.9924C8.97522 12.0267 9.13618 11.5018 9.27148 11.1519C9.4511 10.69 9.66572 10.3587 10.0133 10.0111C10.3609 9.66356 10.6898 9.44894 11.154 9.26932C11.504 9.13401 12.0288 8.97305 12.9946 8.92873C14.0397 8.88207 14.3546 8.87041 17 8.87041ZM17 7.0835C14.308 7.0835 13.9697 7.09516 12.913 7.14415C11.8585 7.19314 11.1377 7.35876 10.5055 7.60604C9.85468 7.86031 9.30181 8.19857 8.74894 8.7491C8.1984 9.29964 7.85781 9.85251 7.60587 10.5057C7.36093 11.1355 7.19297 11.8564 7.14398 12.9131C7.09499 13.9699 7.08333 14.3081 7.08333 17.0002C7.08333 19.6922 7.09499 20.0305 7.14398 21.0872C7.19297 22.1416 7.3586 22.8625 7.60587 23.4946C7.86015 24.1455 8.1984 24.6984 8.74894 25.2512C9.29947 25.8018 9.85234 26.1423 10.5055 26.3943C11.1354 26.6392 11.8562 26.8072 12.913 26.8562C13.9697 26.9052 14.308 26.9168 17 26.9168C19.692 26.9168 20.0303 26.9052 21.087 26.8562C22.1415 26.8072 22.8623 26.6416 23.4945 26.3943C24.1453 26.14 24.6982 25.8018 25.2511 25.2512C25.8016 24.7007 26.1422 24.1478 26.3941 23.4946C26.6391 22.8648 26.807 22.144 26.856 21.0872C26.905 20.0305 26.9167 19.6922 26.9167 17.0002C26.9167 14.3081 26.905 13.9699 26.856 12.9131C26.807 11.8587 26.6414 11.1379 26.3941 10.5057C26.1398 9.85484 25.8016 9.30197 25.2511 8.7491C24.7005 8.19857 24.1476 7.85798 23.4945 7.60604C22.8646 7.3611 22.1438 7.19314 21.087 7.14415C20.0303 7.09516 19.692 7.0835 17 7.0835Z" fill="white"/>
<path d="M17 12.3716C14.4443 12.3716 12.3722 14.4437 12.3722 16.9994C12.3722 19.555 14.4443 21.6271 17 21.6271C19.5557 21.6271 21.6278 19.555 21.6278 16.9994C21.6278 14.4437 19.5557 12.3716 17 12.3716ZM17 20.0047C15.3415 20.0047 13.9947 18.66 13.9947 16.9994C13.9947 15.3387 15.3393 13.9941 17 13.9941C18.6607 13.9941 20.0053 15.3387 20.0053 16.9994C20.0053 18.66 18.6607 20.0047 17 20.0047Z" fill="white"/>
<path d="M21.6278 13.6942C22.358 13.6942 22.95 13.1023 22.95 12.372C22.95 11.6418 22.358 11.0498 21.6278 11.0498C20.8975 11.0498 20.3055 11.6418 20.3055 12.372C20.3055 13.1023 20.8975 13.6942 21.6278 13.6942Z" fill="white"/>
</svg>
