<svg width="20" height="20" viewBox="0 0 20 20" fill="none" xmlns="http://www.w3.org/2000/svg">
<path d="M8.33333 1.6665V7.75817" stroke="#999999" stroke-width="1.5" stroke-linecap="round" stroke-linejoin="round"/>
<path d="M11.6667 7.74987V1.6582" stroke="#999999" stroke-width="1.5" stroke-linecap="round" stroke-linejoin="round"/>
<path d="M7.08333 1.6665H12.9167" stroke="#999999" stroke-width="1.5" stroke-linecap="round" stroke-linejoin="round"/>
<path d="M11.6667 7.75C12.8944 8.14704 13.9401 8.96934 14.6155 10.0689C15.2909 11.1684 15.5515 12.4729 15.3506 13.7475C15.1496 15.0221 14.5002 16.1831 13.5193 17.0215C12.5384 17.8599 11.2904 18.3205 10 18.3205C8.70963 18.3205 7.46164 17.8599 6.48072 17.0215C5.49981 16.1831 4.8504 15.0221 4.64943 13.7475C4.44846 12.4729 4.70912 11.1684 5.38449 10.0689C6.05986 8.96934 7.10556 8.14704 8.33333 7.75" stroke="#999999" stroke-width="1.5" stroke-linecap="round" stroke-linejoin="round"/>
<path d="M4.65 13.75H15.3583" stroke="#999999" stroke-width="1.5" stroke-linecap="round" stroke-linejoin="round"/>
</svg>
