<svg width="34" height="34" viewBox="0 0 34 34" fill="none" xmlns="http://www.w3.org/2000/svg">
<rect width="34" height="34" rx="17" fill="#120F20"/>
<path d="M17.5301 26.9168C16.932 26.9168 16.3846 26.5747 16.1084 26.015C15.2787 24.3336 14.0841 21.8304 13.1018 19.453C11.9281 16.6124 11.3333 14.6093 11.3333 13.501C11.3333 11.7868 11.9778 10.1756 13.1487 8.96319C14.319 7.75081 15.8757 7.0835 17.5313 7.0835C19.1868 7.0835 20.7429 7.75081 21.9138 8.96319C23.0841 10.175 23.7292 11.7868 23.7292 13.501C23.7292 14.6099 23.1344 16.6124 21.9607 19.4536C20.9784 21.831 19.7838 24.3347 18.9541 26.0156C18.7038 26.5232 18.2283 26.8572 17.6826 26.9098C17.6318 26.9145 17.5804 26.9168 17.5301 26.9168ZM17.5313 10.2323C15.704 10.2323 14.2174 11.7716 14.2174 13.6636C14.2174 15.5556 15.704 17.0949 17.5313 17.0949C19.3585 17.0949 20.8451 15.5556 20.8451 13.6636C20.8451 11.7716 19.3585 10.2323 17.5313 10.2323Z" fill="white"/>
</svg>
