<svg width="30" height="30" viewBox="0 0 30 30" fill="none" xmlns="http://www.w3.org/2000/svg">
<path d="M22.5763 3H20.873V18.3514H25V5.40407C25 4.07635 23.9149 3 22.5763 3Z" fill="#F9BC15"/>
<path d="M10.127 7.26806H20.873V3H8.42367C7.08512 3 6 4.07635 6 5.40407V18.3514H10.127V7.26806Z" fill="#547DBF"/>
<path d="M10.127 18.3834V18.3507H6V20.2474C6 21.5752 7.08512 22.6515 8.42367 22.6515H19.2065L20.8738 24.1278V18.3834H10.127Z" fill="#34A851"/>
<path d="M20.873 18.3834V24.1285L25 27.7826V20.2482V18.3515H20.873V18.3834Z" fill="#EA4435"/>
<path d="M12.1705 13.4846C12.8322 13.4846 13.3685 12.9526 13.3685 12.2963C13.3685 11.64 12.8322 11.108 12.1705 11.108C11.5089 11.108 10.9725 11.64 10.9725 12.2963C10.9725 12.9526 11.5089 13.4846 12.1705 13.4846Z" fill="#4A494A"/>
<path d="M15.4996 13.4846C16.1613 13.4846 16.6976 12.9526 16.6976 12.2963C16.6976 11.64 16.1613 11.108 15.4996 11.108C14.838 11.108 14.3016 11.64 14.3016 12.2963C14.3016 12.9526 14.838 13.4846 15.4996 13.4846Z" fill="#4A494A"/>
<path d="M18.8295 13.4846C19.4911 13.4846 20.0275 12.9526 20.0275 12.2963C20.0275 11.64 19.4911 11.108 18.8295 11.108C18.1678 11.108 17.6315 11.64 17.6315 12.2963C17.6315 12.9526 18.1678 13.4846 18.8295 13.4846Z" fill="#4A494A"/>
</svg>
