<svg width="20" height="20" viewBox="0 0 20 20" fill="none" xmlns="http://www.w3.org/2000/svg">
<path d="M3.33334 16.6667H16.6667C17.1087 16.6667 17.5326 16.4911 17.8452 16.1785C18.1577 15.866 18.3333 15.442 18.3333 15V6.66667C18.3333 6.22464 18.1577 5.80072 17.8452 5.48816C17.5326 5.17559 17.1087 5 16.6667 5H10.0583C9.78383 4.99858 9.51392 4.92937 9.27259 4.79853C9.03126 4.66769 8.82598 4.47927 8.675 4.25L7.99167 3.25C7.84069 3.02073 7.63542 2.83231 7.39409 2.70147C7.15276 2.57063 6.88285 2.50142 6.60834 2.5H3.33334C2.89131 2.5 2.46739 2.67559 2.15483 2.98816C1.84227 3.30072 1.66667 3.72464 1.66667 4.16667V15C1.66667 15.9167 2.41667 16.6667 3.33334 16.6667Z" stroke="#999999" stroke-width="1.5" stroke-linecap="round" stroke-linejoin="round"/>
<path d="M9.58333 12.5002C10.7339 12.5002 11.6667 11.5674 11.6667 10.4168C11.6667 9.26624 10.7339 8.3335 9.58333 8.3335C8.43274 8.3335 7.5 9.26624 7.5 10.4168C7.5 11.5674 8.43274 12.5002 9.58333 12.5002Z" stroke="#999999" stroke-width="1.5" stroke-linecap="round" stroke-linejoin="round"/>
<path d="M11.0583 11.8916L12.5 13.3333" stroke="#999999" stroke-width="1.5" stroke-linecap="round" stroke-linejoin="round"/>
</svg>
