<svg width="68" height="27" viewBox="0 0 68 27" fill="none" xmlns="http://www.w3.org/2000/svg">
<g clip-path="url(#clip0_77_1357)">
<path d="M3.58562 14.1265L3.57311 19.2442C3.57469 19.5958 3.4657 19.9394 3.26078 20.2289C3.12128 20.4303 2.93064 20.5933 2.70736 20.7019C2.48408 20.8106 2.23573 20.8612 1.98641 20.8489C1.68147 20.8583 1.37911 20.7918 1.108 20.6556C0.836892 20.5194 0.606008 20.3182 0.437234 20.0708C0.154783 19.6927 0.0018109 19.2376 0 18.7701C0 16.9709 0.0583105 14.268 0.174931 10.6615C0.291552 7.05507 0.349863 4.35221 0.349863 2.55298C0.346746 2.33554 0.389451 2.11979 0.475343 1.91904C0.561235 1.71829 0.688492 1.5368 0.849261 1.38576C1.01236 1.226 1.20735 1.10044 1.42222 1.0168C1.63709 0.933158 1.86728 0.893216 2.09861 0.899433C2.32906 0.892844 2.55842 0.932638 2.77233 1.01632C2.98623 1.10001 3.18007 1.22578 3.3417 1.38576C3.50076 1.53769 3.62644 1.71947 3.71115 1.92007C3.79585 2.12068 3.83781 2.33594 3.83447 2.55279C3.83447 3.28225 3.797 4.26695 3.72208 5.50689C3.63048 6.94945 3.57633 7.93415 3.55966 8.46099C4.14327 7.92616 6.30486 5.67312 10.0444 1.70186C10.2071 1.51355 10.4096 1.36168 10.6381 1.25663C10.8667 1.15159 11.1159 1.09586 11.3686 1.09326C11.8328 1.08911 12.2797 1.26396 12.6117 1.57959C12.7814 1.72806 12.9164 1.91006 13.008 2.11342C13.0995 2.31678 13.1453 2.53681 13.1424 2.75879C13.1424 3.26129 12.1513 4.56615 10.1691 6.67337C8.70349 8.2213 7.15848 9.74901 5.53413 11.2565C6.44195 12.0913 7.35394 12.9261 8.27011 13.7608C9.18594 14.5945 10.1451 15.3819 11.1439 16.1199C11.5619 16.4164 12.0258 16.6462 12.5181 16.8006C13.4093 17.0762 13.8548 17.607 13.8548 18.3931C13.8505 18.755 13.7328 19.107 13.5175 19.4021C13.3795 19.6104 13.1885 19.7803 12.9629 19.8954C12.7374 20.0105 12.4851 20.0667 12.2306 20.0587C11.0398 20.0587 9.49501 19.3009 7.59635 17.7855C7.02967 17.3315 5.69276 16.1119 3.58562 14.1265ZM19.4227 20.2289C18.6883 20.2401 17.9589 20.1095 17.2768 19.8445C16.5947 19.5795 15.9734 19.1854 15.4489 18.6851C14.2329 17.5585 13.5958 16.0551 13.5376 14.1748C13.4564 12.456 13.9907 10.7631 15.0492 9.38495C16.3152 7.73166 18.0768 6.90501 20.3337 6.90501C21.1097 6.88345 21.8791 7.04993 22.5725 7.38946C23.266 7.72899 23.8619 8.23092 24.3066 8.85012C25.1894 10.0172 25.6308 11.4638 25.6308 13.1902C25.6308 15.0704 25.1144 16.6749 24.0816 18.0036C22.924 19.4871 21.371 20.2289 19.4227 20.2289ZM20.1723 10.1143C19.1478 10.1062 18.3399 10.5601 17.7486 11.4759C17.2373 12.2867 16.977 13.2238 16.9991 14.1748C16.9991 15.1473 17.2822 15.893 17.8485 16.4117C18.2681 16.8132 18.8343 17.0362 19.4227 17.0317C20.1235 17.0408 20.8004 16.7835 21.3092 16.3145C21.9172 15.7553 22.2421 14.9975 22.2838 14.0411C22.3913 11.4314 21.6871 10.1225 20.1713 10.1143H20.1723ZM35.5962 7.29396C35.7045 4.53031 35.8335 2.62171 35.9834 1.56815C36.125 0.611855 36.6664 0.133706 37.6074 0.133706C37.8275 0.124615 38.047 0.161003 38.2516 0.240474C38.4562 0.319945 38.6411 0.440694 38.7942 0.594765C38.9419 0.74519 39.0576 0.922465 39.1348 1.11645C39.2119 1.31044 39.249 1.51733 39.244 1.72528C39.244 2.90043 39.1503 4.65104 38.9629 6.97712C38.7755 9.30319 38.6818 11.0538 38.6818 12.229C38.6818 15.098 38.7776 17.0187 38.9692 17.9913C38.9929 18.1074 39.0056 18.2255 39.0071 18.3439C39.0126 18.5518 38.9707 18.7584 38.8842 18.9487C38.7978 19.1389 38.6691 19.3082 38.5073 19.4442C38.1901 19.7259 37.7749 19.8801 37.3455 19.8757C37.0612 19.8858 36.78 19.8154 36.536 19.673C36.292 19.5305 36.0958 19.3222 35.9712 19.0733C35.4214 19.3986 34.8289 19.6501 34.2098 19.8209C33.5957 19.9879 32.9609 20.0717 32.3233 20.0701C30.4576 20.0701 28.9085 19.4906 27.6759 18.3317C26.4182 17.1485 25.7894 15.641 25.7894 13.8095C25.7894 11.6293 26.4224 9.86863 27.6884 8.52738C28.9545 7.18613 30.6077 6.5155 32.6481 6.5155C33.2125 6.50833 33.7754 6.57375 34.3222 6.71007C34.7806 6.82492 35.2126 7.02302 35.5954 7.29396H35.5962ZM35.3464 11.1233C35.1076 10.6503 34.7348 10.2536 34.272 9.9799C33.7915 9.71904 33.2478 9.58889 32.6978 9.60313C31.4651 9.60313 30.5406 9.9496 29.9243 10.6425C29.3079 11.3355 28.9998 12.3749 28.9998 13.7608C28.9948 14.1829 29.0811 14.6014 29.2531 14.989C29.4251 15.3766 29.6789 15.7247 29.9982 16.0106C30.3021 16.3091 30.6642 16.5456 31.0632 16.7064C31.4622 16.8671 31.8901 16.9488 32.3219 16.9467C32.8193 16.9702 33.3165 16.8957 33.7836 16.7278C34.1937 16.5085 34.5789 16.2477 34.9328 15.9497C35.0783 15.8327 35.216 15.7069 35.3451 15.5729C35.3286 15.1839 35.3288 13.7008 35.3454 11.1235L35.3464 11.1233ZM50.9822 20.3139C50.5991 20.3139 49.9911 19.9087 49.1582 19.0982C48.5027 19.4109 47.8265 19.681 47.1343 19.9067C46.6558 20.0706 46.1545 20.1628 45.6476 20.1802C43.6404 20.1802 42.135 19.6577 41.1314 18.6126C40.1278 17.5675 39.626 16.0032 39.626 13.9196C39.6149 12.9787 39.8072 12.0462 40.1902 11.1823C40.5733 10.3184 41.1387 9.5425 41.8497 8.9049C42.5497 8.23035 43.3809 7.69856 44.2948 7.34071C45.2087 6.98285 46.1868 6.80613 47.1718 6.82091C47.963 6.82091 48.879 7.03976 49.9199 7.47746C51.1776 8.0043 51.8064 8.61621 51.8064 9.31321C51.8105 9.59418 51.7082 9.86679 51.5191 10.0791C51.4232 10.4811 51.3584 10.8895 51.3254 11.3009C51.2796 11.7913 51.2566 12.3646 51.2566 13.0211C51.2566 14.569 51.3691 15.6833 51.594 16.3641C51.6192 16.437 51.8108 16.8584 52.1686 17.6283C52.4935 18.3253 52.6559 18.7224 52.6559 18.8197C52.6597 19.0236 52.6162 19.2256 52.5286 19.4108C52.441 19.5961 52.3115 19.7596 52.1499 19.8894C51.8281 20.167 51.4118 20.3184 50.9818 20.3141L50.9822 20.3139ZM47.8836 11.9744C47.8863 11.6758 47.9052 11.3776 47.9405 11.0809C47.9784 10.7445 48.0346 10.3695 48.1092 9.95593C47.967 9.88447 47.8186 9.82547 47.6657 9.77962C47.5585 9.74641 47.447 9.72779 47.3346 9.72429C46.2019 9.72429 45.2108 10.1558 44.3613 11.0189C43.9555 11.4114 43.6339 11.8784 43.4151 12.3929C43.1963 12.9073 43.0848 13.4589 43.087 14.0156C43.087 15.1017 43.2868 15.9182 43.6866 16.4652C44.0864 17.0122 44.686 17.2857 45.4856 17.2857C45.9862 17.2884 46.4833 17.204 46.9535 17.0365C47.4276 16.8637 47.8688 16.6151 48.2589 16.301C48.0493 14.867 47.924 13.4224 47.8836 11.9744ZM63.6074 10.7466C63.5325 11.9865 62.9536 12.6065 61.8708 12.6065C60.8213 12.6065 60.2966 12.0797 60.2966 11.0261L60.234 9.79825C58.3596 10.0895 57.0187 11.0256 56.2114 12.6067L56.2239 18.7216C56.23 18.9356 56.1898 19.1485 56.1058 19.3464C56.0219 19.5443 55.8961 19.7228 55.7366 19.8704C55.5718 20.0224 55.3776 20.141 55.1653 20.2192C54.9529 20.2975 54.7267 20.3339 54.4998 20.3263C54.2751 20.3387 54.0504 20.3014 53.8427 20.2172C53.6349 20.133 53.4496 20.004 53.3005 19.8399C53.027 19.5295 52.8843 19.1301 52.9008 18.7216V10.7587C52.9008 10.5075 52.9091 10.1325 52.9258 9.63374C52.9424 9.13494 52.9508 8.75994 52.9508 8.50876C52.937 8.09194 53.0866 7.68562 53.3693 7.37215C53.5219 7.21587 53.708 7.09406 53.9143 7.01529C54.1206 6.93653 54.3421 6.90272 54.5633 6.91626C55.4878 6.91626 56.0374 7.37824 56.2121 8.3022C57.6213 7.2537 59.348 6.68943 61.122 6.69771C62.7878 6.69771 63.6207 7.77561 63.6207 9.9314C63.6201 10.3451 63.6157 10.6168 63.6074 10.7466ZM68 17.7246C68 19.2644 67.4251 20.0343 66.2753 20.0343C66.048 20.0419 65.8213 20.0051 65.6089 19.9259C65.3964 19.8467 65.2024 19.7268 65.0385 19.5733C64.8767 19.4185 64.7499 19.2326 64.666 19.0275C64.5821 18.8224 64.543 18.6025 64.5512 18.3819V1.56815C64.545 1.3498 64.5888 1.13284 64.6796 0.933066C64.7704 0.73329 64.9058 0.555724 65.076 0.413292C65.4226 0.133097 65.8625 -0.0139228 66.3129 -8.43395e-07C66.7593 -0.0162401 67.1945 0.138727 67.5247 0.43155C67.6824 0.577139 67.8063 0.753893 67.888 0.949936C67.9698 1.14598 68.0074 1.35677 67.9985 1.56815L68 17.7246Z" fill="#5036FC"/>
<mask id="mask0_77_1357" style="mask-type:luminance" maskUnits="userSpaceOnUse" x="50" y="22" width="16" height="5">
<path d="M65.0745 22.2201H50.1011V27H65.0745V22.2201Z" fill="white"/>
</mask>
<g mask="url(#mask0_77_1357)">
<path d="M50.3107 22.4415L50.4043 22.3618C50.5175 22.2666 50.6633 22.216 50.8129 22.22C50.9625 22.2241 51.1052 22.2825 51.2128 22.3838C52.0114 23.1366 54.1059 24.7241 57.5619 24.7241C61.0425 24.7241 63.2404 23.1668 64.0719 22.4455C64.1818 22.3493 64.3244 22.296 64.4723 22.2957C64.6202 22.2954 64.763 22.3483 64.8734 22.4441C64.9837 22.54 65.0538 22.672 65.0703 22.8151C65.0868 22.9581 65.0484 23.102 64.9626 23.2192C64.1594 24.3056 61.7458 26.9999 57.5615 26.9999C53.3772 26.9999 50.9988 24.3053 50.2102 23.219C50.1245 23.1004 50.0874 22.9549 50.1059 22.811C50.1245 22.6671 50.1975 22.5359 50.3107 22.4415Z" fill="#5036FC"/>
</g>
</g>
<defs>
<clipPath id="clip0_77_1357">
<rect width="68" height="27" fill="white"/>
</clipPath>
</defs>
</svg>
