<svg width="68" height="27" viewBox="0 0 68 27" fill="none" xmlns="http://www.w3.org/2000/svg">
<g clip-path="url(#clip0_3_35)">
<path d="M3.58562 14.1265L3.57311 19.2442C3.57469 19.5958 3.4657 19.9393 3.26078 20.2289C3.12128 20.4303 2.93064 20.5933 2.70736 20.7019C2.48408 20.8105 2.23573 20.8612 1.98641 20.8489C1.68147 20.8583 1.37911 20.7917 1.108 20.6556C0.836892 20.5194 0.606008 20.3181 0.437234 20.0708C0.154783 19.6926 0.0018109 19.2376 0 18.7701C0 16.9708 0.0583105 14.268 0.174931 10.6615C0.291552 7.05504 0.349863 4.35218 0.349863 2.55295C0.346746 2.33551 0.389451 2.11976 0.475343 1.91901C0.561235 1.71826 0.688492 1.53677 0.849261 1.38573C1.01236 1.22597 1.20735 1.10041 1.42222 1.01677C1.63709 0.933127 1.86728 0.893186 2.09861 0.899403C2.32906 0.892813 2.55842 0.932608 2.77233 1.01629C2.98623 1.09998 3.18007 1.22575 3.3417 1.38573C3.50076 1.53766 3.62644 1.71944 3.71115 1.92004C3.79585 2.12065 3.83781 2.33591 3.83447 2.55276C3.83447 3.28222 3.797 4.26692 3.72208 5.50686C3.63048 6.94942 3.57633 7.93412 3.55966 8.46096C4.14327 7.92613 6.30486 5.67309 10.0444 1.70183C10.2071 1.51352 10.4096 1.36165 10.6381 1.2566C10.8667 1.15156 11.1159 1.09583 11.3686 1.09323C11.8328 1.08908 12.2797 1.26393 12.6117 1.57956C12.7814 1.72803 12.9164 1.91003 13.008 2.11339C13.0995 2.31675 13.1453 2.53678 13.1424 2.75876C13.1424 3.26126 12.1513 4.56612 10.1691 6.67334C8.70349 8.22127 7.15848 9.74897 5.53413 11.2565C6.44195 12.0913 7.35394 12.926 8.27011 13.7607C9.18594 14.5944 10.1451 15.3819 11.1439 16.1199C11.5619 16.4164 12.0258 16.6462 12.5181 16.8006C13.4093 17.0761 13.8548 17.607 13.8548 18.3931C13.8505 18.755 13.7328 19.107 13.5175 19.4021C13.3795 19.6104 13.1885 19.7803 12.9629 19.8954C12.7374 20.0104 12.4851 20.0667 12.2306 20.0586C11.0398 20.0586 9.49501 19.3009 7.59635 17.7854C7.02967 17.3315 5.69276 16.1118 3.58562 14.1265ZM19.4227 20.2289C18.6883 20.2401 17.9589 20.1094 17.2768 19.8444C16.5947 19.5794 15.9734 19.1854 15.4489 18.685C14.2329 17.5585 13.5958 16.055 13.5376 14.1748C13.4564 12.456 13.9907 10.7631 15.0492 9.38492C16.3152 7.73163 18.0768 6.90498 20.3337 6.90498C21.1097 6.88342 21.8791 7.0499 22.5725 7.38943C23.266 7.72896 23.8619 8.23089 24.3066 8.85009C25.1894 10.0171 25.6308 11.4638 25.6308 13.1901C25.6308 15.0704 25.1144 16.6749 24.0816 18.0036C22.924 19.4871 21.371 20.2289 19.4227 20.2289ZM20.1723 10.1143C19.1478 10.1062 18.3399 10.5601 17.7486 11.4759C17.2373 12.2867 16.977 13.2237 16.9991 14.1748C16.9991 15.1473 17.2822 15.8929 17.8485 16.4117C18.2681 16.8131 18.8343 17.0361 19.4227 17.0317C20.1235 17.0408 20.8004 16.7835 21.3092 16.3145C21.9172 15.7553 22.2421 14.9975 22.2838 14.0411C22.3913 11.4313 21.6871 10.1224 20.1713 10.1143H20.1723ZM35.5962 7.29393C35.7045 4.53027 35.8335 2.62167 35.9834 1.56812C36.125 0.611825 36.6664 0.133676 37.6074 0.133676C37.8275 0.124585 38.047 0.160972 38.2516 0.240443C38.4562 0.319914 38.6411 0.440664 38.7942 0.594735C38.9419 0.745159 39.0576 0.922435 39.1348 1.11642C39.2119 1.31041 39.249 1.5173 39.244 1.72525C39.244 2.9004 39.1503 4.65101 38.9629 6.97709C38.7755 9.30316 38.6818 11.0538 38.6818 12.2289C38.6818 15.0979 38.7776 17.0187 38.9692 17.9912C38.9929 18.1074 39.0056 18.2254 39.0071 18.3439C39.0126 18.5518 38.9707 18.7584 38.8842 18.9486C38.7978 19.1389 38.6691 19.3081 38.5073 19.4441C38.1901 19.7259 37.7749 19.8801 37.3455 19.8757C37.0612 19.8858 36.78 19.8154 36.536 19.6729C36.292 19.5305 36.0958 19.3221 35.9712 19.0733C35.4214 19.3986 34.8289 19.6501 34.2098 19.8209C33.5957 19.9878 32.9609 20.0717 32.3233 20.0701C30.4576 20.0701 28.9085 19.4906 27.6759 18.3317C26.4182 17.1484 25.7894 15.641 25.7894 13.8094C25.7894 11.6293 26.4224 9.8686 27.6884 8.52735C28.9545 7.1861 30.6077 6.51547 32.6481 6.51547C33.2125 6.5083 33.7754 6.57372 34.3222 6.71004C34.7806 6.82489 35.2126 7.02299 35.5954 7.29393H35.5962ZM35.3464 11.1233C35.1076 10.6503 34.7348 10.2536 34.272 9.97987C33.7915 9.71901 33.2478 9.58886 32.6978 9.6031C31.4651 9.6031 30.5406 9.94957 29.9243 10.6425C29.3079 11.3354 28.9998 12.3749 28.9998 13.7607C28.9948 14.1829 29.0811 14.6014 29.2531 14.989C29.4251 15.3766 29.6789 15.7246 29.9982 16.0105C30.3021 16.3091 30.6642 16.5456 31.0632 16.7064C31.4622 16.8671 31.8901 16.9488 32.3219 16.9467C32.8193 16.9702 33.3165 16.8957 33.7836 16.7278C34.1937 16.5084 34.5789 16.2476 34.9328 15.9497C35.0783 15.8327 35.216 15.7068 35.3451 15.5729C35.3286 15.1839 35.3288 13.7007 35.3454 11.1235L35.3464 11.1233ZM50.9822 20.3139C50.5991 20.3139 49.9911 19.9086 49.1582 19.0982C48.5027 19.4109 47.8265 19.681 47.1343 19.9067C46.6558 20.0706 46.1545 20.1628 45.6476 20.1802C43.6404 20.1802 42.135 19.6576 41.1314 18.6126C40.1278 17.5675 39.626 16.0032 39.626 13.9195C39.6149 12.9787 39.8072 12.0461 40.1902 11.1822C40.5733 10.3184 41.1387 9.54246 41.8497 8.90487C42.5497 8.23032 43.3809 7.69853 44.2948 7.34068C45.2087 6.98282 46.1868 6.8061 47.1718 6.82088C47.963 6.82088 48.879 7.03973 49.9199 7.47743C51.1776 8.00427 51.8064 8.61618 51.8064 9.31318C51.8105 9.59415 51.7082 9.86676 51.5191 10.0791C51.4232 10.4811 51.3584 10.8895 51.3254 11.3009C51.2796 11.7912 51.2566 12.3646 51.2566 13.021C51.2566 14.569 51.3691 15.6833 51.594 16.3641C51.6192 16.437 51.8108 16.8584 52.1686 17.6283C52.4935 18.3253 52.6559 18.7224 52.6559 18.8197C52.6597 19.0235 52.6162 19.2256 52.5286 19.4108C52.441 19.596 52.3115 19.7596 52.1499 19.8893C51.8281 20.167 51.4118 20.3184 50.9818 20.3141L50.9822 20.3139ZM47.8836 11.9744C47.8863 11.6758 47.9052 11.3775 47.9405 11.0809C47.9784 10.7445 48.0346 10.3695 48.1092 9.9559C47.967 9.88444 47.8186 9.82544 47.6657 9.77959C47.5585 9.74638 47.447 9.72776 47.3346 9.72426C46.2019 9.72426 45.2108 10.1558 44.3613 11.0189C43.9555 11.4114 43.6339 11.8784 43.4151 12.3928C43.1963 12.9073 43.0848 13.4589 43.087 14.0156C43.087 15.1016 43.2868 15.9181 43.6866 16.4651C44.0864 17.0121 44.686 17.2856 45.4856 17.2856C45.9862 17.2883 46.4833 17.2039 46.9535 17.0365C47.4276 16.8636 47.8688 16.6151 48.2589 16.301C48.0493 14.8669 47.924 13.4224 47.8836 11.9744ZM63.6074 10.7465C63.5325 11.9865 62.9536 12.6064 61.8708 12.6064C60.8213 12.6064 60.2966 12.0797 60.2966 11.0261L60.234 9.79822C58.3596 10.0895 57.0187 11.0256 56.2114 12.6066L56.2239 18.7216C56.23 18.9356 56.1898 19.1485 56.1058 19.3464C56.0219 19.5443 55.8961 19.7228 55.7366 19.8703C55.5718 20.0223 55.3776 20.1409 55.1653 20.2192C54.9529 20.2975 54.7267 20.3339 54.4998 20.3262C54.2751 20.3387 54.0504 20.3014 53.8427 20.2172C53.6349 20.1329 53.4496 20.0039 53.3005 19.8399C53.027 19.5295 52.8843 19.1301 52.9007 18.7216V10.7587C52.9007 10.5075 52.9091 10.1325 52.9258 9.63371C52.9424 9.13491 52.9508 8.75991 52.9508 8.50873C52.937 8.09191 53.0866 7.68559 53.3693 7.37212C53.5219 7.21584 53.708 7.09403 53.9143 7.01526C54.1206 6.9365 54.3421 6.90269 54.5633 6.91623C55.4878 6.91623 56.0374 7.37821 56.2121 8.30217C57.6213 7.25367 59.348 6.6894 61.122 6.69768C62.7878 6.69768 63.6207 7.77558 63.6207 9.93137C63.6201 10.3451 63.6157 10.6168 63.6074 10.7465ZM68 17.7246C68 19.2644 67.4251 20.0343 66.2753 20.0343C66.048 20.0419 65.8213 20.005 65.6089 19.9258C65.3964 19.8466 65.2024 19.7267 65.0385 19.5732C64.8767 19.4184 64.7499 19.2326 64.666 19.0274C64.5821 18.8223 64.543 18.6025 64.5512 18.3819V1.56812C64.545 1.34977 64.5888 1.13281 64.6796 0.933035C64.7704 0.733259 64.9058 0.555694 65.076 0.413262C65.4226 0.133066 65.8625 -0.0139533 66.3129 -3.1361e-05C66.7593 -0.0162706 67.1945 0.138696 67.5247 0.43152C67.6824 0.577108 67.8063 0.753862 67.888 0.949906C67.9698 1.14595 68.0074 1.35674 67.9985 1.56812L68 17.7246Z" fill="white"/>
<mask id="mask0_3_35" style="mask-type:luminance" maskUnits="userSpaceOnUse" x="50" y="22" width="16" height="5">
<path d="M65.0745 22.2201H50.1011V27H65.0745V22.2201Z" fill="white"/>
</mask>
<g mask="url(#mask0_3_35)">
<path d="M50.3107 22.4415L50.4043 22.3618C50.5175 22.2665 50.6633 22.216 50.8129 22.22C50.9625 22.2241 51.1052 22.2825 51.2128 22.3837C52.0114 23.1365 54.1059 24.7241 57.5619 24.7241C61.0425 24.7241 63.2404 23.1668 64.0719 22.4455C64.1818 22.3493 64.3244 22.2959 64.4723 22.2957C64.6202 22.2954 64.763 22.3483 64.8734 22.4441C64.9837 22.5399 65.0538 22.672 65.0703 22.815C65.0868 22.958 65.0484 23.1019 64.9626 23.2192C64.1594 24.3056 61.7458 26.9999 57.5615 26.9999C53.3772 26.9999 50.9988 24.3052 50.2102 23.219C50.1245 23.1003 50.0874 22.9549 50.1059 22.811C50.1245 22.6671 50.1975 22.5351 50.3107 22.4407" fill="white"/>
</g>
</g>
<defs>
<clipPath id="clip0_3_35">
<rect width="68" height="27" fill="white"/>
</clipPath>
</defs>
</svg>
