<svg width="94" height="27" viewBox="0 0 94 27" fill="none" xmlns="http://www.w3.org/2000/svg">
<path d="M23.0518 13.9735C23.0518 9.45105 26.0893 6.59355 31.4218 6.59355C34.8868 6.59355 37.0693 7.35855 38.3293 8.95605V15.9085C35.3818 15.9085 32.5018 15.706 29.7118 15.1435V15.931C32.2993 16.561 35.5843 16.696 38.3293 16.696V19.126C36.3268 20.701 33.8518 21.151 30.6568 21.151C26.0893 21.151 23.0518 18.5185 23.0518 13.9735ZM29.7118 11.0485V11.701C30.8818 11.971 32.7718 12.1735 33.8968 12.1735V11.5435C32.7718 11.5435 30.9943 11.341 29.7118 11.0485Z" fill="white"/>
<path d="M55.1981 20.791H48.2906C41.8556 20.791 39.2906 18.946 39.2906 13.591C39.2906 8.82105 42.1931 6.32355 47.5481 6.59355V3.19604H55.1981V20.791ZM50.5631 12.916L50.1581 12.3535C49.0556 13.0285 46.4456 13.5235 44.7581 13.5235V14.1535C46.4456 14.1535 49.3031 13.726 50.5631 12.916Z" fill="white"/>
<path d="M56.1206 17.0785C56.1206 14.7385 56.9981 13.5685 58.9781 12.871C60.4631 12.3535 62.9606 11.9935 64.9181 11.9935V11.2735C62.6456 11.2735 59.8556 11.6785 57.2906 12.556V7.87605C59.2031 7.02105 61.4981 6.59355 64.6481 6.59355C69.3056 6.59355 71.1731 8.16854 71.1731 12.8035V20.791H65.5481V20.026C65.5481 18.271 65.0081 16.561 64.2656 15.5035L63.5906 15.751C64.3556 16.6285 64.8281 18.766 64.8281 20.4085C63.6581 20.836 62.2181 21.1285 60.2831 21.1285C57.5156 21.1285 56.1206 19.5085 56.1206 17.0785Z" fill="white"/>
<path d="M79.0023 7.04355H72.5673V20.791H79.7673V13.411C81.4323 12.646 83.6373 12.556 85.2573 12.556V6.81855C83.5473 6.52605 81.2523 6.97605 79.7898 7.96605L79.0023 7.04355Z" fill="white"/>
<path d="M93.9502 20.791H86.3002V3.19604H93.9502V20.791Z" fill="white"/>
<path d="M27 0H0V27H27V0Z" fill="#5036FC"/>
<path d="M13.4314 9.3763L12.3639 12.5134L12.9521 12.666L15.6103 4.90887H23.1495V21.9268H17.2663V16.1964L15.5233 21.9268H11.6019L9.85799 16.1964V21.9268H3.90964V4.90952H12.0371L13.4314 9.3763Z" fill="white"/>
</svg>
