<svg xmlns="http://www.w3.org/2000/svg" width="665.596" height="172.065" viewBox="0 0 665.596 172.065">
  <path id="패스_21225" data-name="패스 21225" d="M27.195-52.5a13.236,13.236,0,0,0-.42-2.94c-.42-.84-.84-1.785-1.365-2.625a6.444,6.444,0,0,0-2.52-1.785,12.733,12.733,0,0,0-3.57-.525,12.885,12.885,0,0,0-4.1.735,12.883,12.883,0,0,0-3.465,2.415A7.748,7.748,0,0,0,9.24-53.76a9.7,9.7,0,0,0-.84,4.2,6.562,6.562,0,0,0,.42,2.625,4.076,4.076,0,0,0,1.47,2.1,4.79,4.79,0,0,0,2.52,1.26,11.465,11.465,0,0,0,3.57.42,15.136,15.136,0,0,0,4.515-.63,8.5,8.5,0,0,0,3.36-2.2,13.335,13.335,0,0,0,2.2-3.045A9.283,9.283,0,0,0,27.195-52.5ZM16.38-37.59a17.172,17.172,0,0,1-5.985-.84,9.1,9.1,0,0,1-4.2-2.31,8.766,8.766,0,0,1-2.73-3.78,12.69,12.69,0,0,1-.945-5.04,15.343,15.343,0,0,1,1.26-6.3,17.47,17.47,0,0,1,3.78-5.25,20.4,20.4,0,0,1,5.46-3.57,15.343,15.343,0,0,1,6.3-1.26,17.862,17.862,0,0,1,5.985,1.05,13.637,13.637,0,0,1,4.305,2.94,23.628,23.628,0,0,1,2.52,4.41,13.443,13.443,0,0,1,.945,5.04,14.53,14.53,0,0,1-1.155,5.775A15.271,15.271,0,0,1,28.455-42a13.58,13.58,0,0,1-5.25,3.36A20.238,20.238,0,0,1,16.38-37.59ZM47.67-65.625A4.753,4.753,0,0,1,48.4-68.46a2.259,2.259,0,0,1,2.1-.945,3.087,3.087,0,0,1,2.31.945,4.779,4.779,0,0,1,.84,2.835v26.25a3.85,3.85,0,0,1-.84,2.73,3.008,3.008,0,0,1-2.31.84,2.212,2.212,0,0,1-2.1-.84,3.866,3.866,0,0,1-.735-2.73ZM22.575-8.505c0,1.47.525,2.52,1.68,2.94a7.465,7.465,0,0,0,4.515.525A85.716,85.716,0,0,0,40.11-6.615q5.985-1.26,11.025-2.52a2.417,2.417,0,0,1,2.1.315A4.743,4.743,0,0,1,54.39-7.035a3.856,3.856,0,0,1-.1,1.89,2.347,2.347,0,0,1-1.47,1.365A41.85,41.85,0,0,1,47.04-2.2c-2.205.525-4.41.945-6.615,1.365C38.115-.42,35.805,0,33.6.21a34.4,34.4,0,0,1-6.195.63c-3.57.21-6.195-.525-7.875-2.31a8.594,8.594,0,0,1-2.94-5.565c-.42-3.57.315-6.3,2.415-8.085a12.639,12.639,0,0,1,7.035-3.045l11.76-1.26A17.944,17.944,0,0,0,44.31-21c1.575-.735,2.415-1.785,2.415-3.15a3.093,3.093,0,0,0-1.365-2.52,9.451,9.451,0,0,0-3.885-.735L21-26.04c-1.05.21-1.68.1-2.1-.42a2.566,2.566,0,0,1-.735-2.1,2.86,2.86,0,0,1,.735-2.1A3.932,3.932,0,0,1,20.9-31.5L41.37-32.865c3.675-.21,6.51.42,8.505,1.785q2.835,2.2,2.835,6.93a7.893,7.893,0,0,1-3.78,7.14c-2.52,1.68-6.09,2.73-10.5,3.15L27.615-12.7a7.944,7.944,0,0,0-3.675,1.26A3,3,0,0,0,22.575-8.505Zm60.48-52.92a4.4,4.4,0,0,1,2.31-1.68,2.767,2.767,0,0,1,2.415.63,3.115,3.115,0,0,1,1.05,2.1,4.363,4.363,0,0,1-1.05,2.52l-8.295,10.4,11.97,9.03a8.069,8.069,0,0,1,1.785,2.31,2.386,2.386,0,0,1-.525,2.205,2.725,2.725,0,0,1-2.205,1.26,4.485,4.485,0,0,1-2.73-1.05l-11.97-9.03L67.935-32.76a4.172,4.172,0,0,1-2.31,1.785,2.188,2.188,0,0,1-2.2-.63,2.426,2.426,0,0,1-1.26-2.1,3.747,3.747,0,0,1,1.155-2.625Zm26.88,12.915H120.54a3.959,3.959,0,0,1,2.2.735,3.959,3.959,0,0,1,.735,2.205,2.689,2.689,0,0,1-.735,1.995,3.882,3.882,0,0,1-2.2.63H109.935v10.71a4.47,4.47,0,0,1-.735,2.73,3.008,3.008,0,0,1-2.31.84,2.408,2.408,0,0,1-2.205-.84,4.542,4.542,0,0,1-.63-2.73V-61.11a5.668,5.668,0,0,1,.63-2.835,2.452,2.452,0,0,1,2.205-.945,3.087,3.087,0,0,1,2.31.945,5.649,5.649,0,0,1,.735,2.835Zm1.05,34.545a13.379,13.379,0,0,1-1.155,5.46,21.255,21.255,0,0,1-3.15,4.83A13.4,13.4,0,0,1,101.535-.42,17.933,17.933,0,0,1,94.71.735a17.8,17.8,0,0,1-6.09-.84A8.568,8.568,0,0,1,84.315-2.73a8.49,8.49,0,0,1-2.73-3.885,12.69,12.69,0,0,1-.945-5.04,15.779,15.779,0,0,1,1.05-5.88,14.777,14.777,0,0,1,3.255-5.04A13.087,13.087,0,0,1,89.88-26.04a18.748,18.748,0,0,1,6.72-1.155,17.085,17.085,0,0,1,5.775.945,21.529,21.529,0,0,1,4.515,2.73,19.447,19.447,0,0,1,3.045,4.2A15.192,15.192,0,0,1,110.985-13.965Zm-5.775,0a10.309,10.309,0,0,0-.525-3.045,17.517,17.517,0,0,0-1.68-2.52,11.594,11.594,0,0,0-2.73-1.575A12.92,12.92,0,0,0,96.6-21.63a13.163,13.163,0,0,0-4.305.735,8.133,8.133,0,0,0-3.255,2.2,7.827,7.827,0,0,0-2,3.255,11.891,11.891,0,0,0-.63,3.78,6.408,6.408,0,0,0,.525,2.94,3.62,3.62,0,0,0,1.47,2.2,4.79,4.79,0,0,0,2.52,1.26,13.405,13.405,0,0,0,3.78.42,12.161,12.161,0,0,0,4.41-.735,6.933,6.933,0,0,0,3.255-2.31,14.907,14.907,0,0,0,2.1-2.94A8.6,8.6,0,0,0,105.21-13.965ZM166.95-44.73a16,16,0,0,1-1.26,6.51,16.751,16.751,0,0,1-3.78,5.145,14.809,14.809,0,0,1-5.67,3.57,18.482,18.482,0,0,1-6.93,1.155,15.465,15.465,0,0,1-5.565-.945,12.244,12.244,0,0,1-4.41-2.835,11.839,11.839,0,0,1-2.835-4.305,12.675,12.675,0,0,1-1.05-5.46,18.482,18.482,0,0,1,1.155-6.93,15.262,15.262,0,0,1,3.57-5.565,14.388,14.388,0,0,1,5.25-3.675,16,16,0,0,1,6.51-1.26,19.14,19.14,0,0,1,6.2,1.05,22.4,22.4,0,0,1,4.83,2.835,23.064,23.064,0,0,1,2.94,4.62A18.992,18.992,0,0,1,166.95-44.73ZM149.31-33.915a13.326,13.326,0,0,0,4.62-.735,11.189,11.189,0,0,0,3.885-2.2,11.907,11.907,0,0,0,2.415-3.57,13.678,13.678,0,0,0,.735-4.305,14.486,14.486,0,0,0-.525-3.885,16.348,16.348,0,0,0-1.68-2.94,13.389,13.389,0,0,0-2.94-1.68,14.486,14.486,0,0,0-3.885-.525,10.7,10.7,0,0,0-4.2.84,10.276,10.276,0,0,0-3.465,2.415,11.6,11.6,0,0,0-2.2,3.99,13.326,13.326,0,0,0-.735,4.62,7.57,7.57,0,0,0,.525,3.255,4.579,4.579,0,0,0,1.575,2.625,5.412,5.412,0,0,0,2.73,1.68A9.152,9.152,0,0,0,149.31-33.915ZM128.52-8.82c-1.05.21-1.68.105-2.1-.42a2.338,2.338,0,0,1-.735-1.995,2.86,2.86,0,0,1,.735-2.1,3.932,3.932,0,0,1,1.995-.945l46.41-2.625a3.3,3.3,0,0,1,2.1.525,3.382,3.382,0,0,1,.735,2.1,2.964,2.964,0,0,1-.735,2.1,2.614,2.614,0,0,1-2,.735Zm75.39-52.4c4.3,0,7.56.84,9.87,2.52a9.018,9.018,0,0,1,3.255,7.35c0,3.15-1.05,5.46-3.045,6.93-2.1,1.68-5.25,2.94-9.345,3.99l-8.085,1.68a6.089,6.089,0,0,0-3.15,1.89,5.916,5.916,0,0,0-1.47,4.41c0,1.68.42,2.835,1.47,3.465a6.284,6.284,0,0,0,4.1.84,74.12,74.12,0,0,0,10.815-.945,81.238,81.238,0,0,0,11.13-1.995,2.417,2.417,0,0,1,2.1.315,4.11,4.11,0,0,1,1.05,1.68,6.114,6.114,0,0,1-.315,2,2.969,2.969,0,0,1-1.89,1.47,68.69,68.69,0,0,1-11.235,2.2h.1V-12.6l20.16-1.155a3.3,3.3,0,0,1,2.1.525,3.382,3.382,0,0,1,.735,2.1,2.964,2.964,0,0,1-.735,2.1,2.614,2.614,0,0,1-2,.735L183.12-5.67c-1.05.21-1.68.105-2.1-.42a2.338,2.338,0,0,1-.735-2,2.86,2.86,0,0,1,.735-2.1,3.932,3.932,0,0,1,1.995-.945l20.265-1.155v-10.5c-2.52.21-4.725.21-6.825.21-3.57,0-6.195-.735-7.875-2.31-1.785-1.47-2.625-3.99-2.625-7.56a11.377,11.377,0,0,1,2.415-7.665,11.8,11.8,0,0,1,6.825-3.885l7.875-1.68a23.712,23.712,0,0,0,5.67-2.1,3.993,3.993,0,0,0,2.31-3.57,3.79,3.79,0,0,0-1.785-3.36,12.232,12.232,0,0,0-5.355-.945,32,32,0,0,0-3.36.21c-1.155.21-2.205.315-3.255.525-1.05.315-2.1.63-3.15.84-1.155.315-2.31.63-3.36.84a2.789,2.789,0,0,1-2.625-.1,2.8,2.8,0,0,1-1.365-1.575,2.656,2.656,0,0,1,.105-1.995,2.329,2.329,0,0,1,1.575-1.365c2.52-.84,5.04-1.47,7.56-2.1A38.5,38.5,0,0,1,203.91-61.215Zm67.3-8.61,24.045-1.26a3.827,3.827,0,0,1,2.2.525,2.875,2.875,0,0,1,.735,1.995,2.964,2.964,0,0,1-.735,2.1,2.7,2.7,0,0,1-2.1.84l-22.26,1.26a2.367,2.367,0,0,0-1.26.525,2.11,2.11,0,0,0-.42,1.365v6.825a5.238,5.238,0,0,0,1.26,3.885,5.238,5.238,0,0,0,3.885,1.26A76.7,76.7,0,0,0,287.8-51.24a39.842,39.842,0,0,0,9.555-2.415,3.336,3.336,0,0,1,2.415-.21,4.861,4.861,0,0,1,1.575,1.68,3.246,3.246,0,0,1,.105,2.205,2.967,2.967,0,0,1-1.785,1.365,51,51,0,0,1-10.815,2.73l-1.89.315V-37.9l20.16-1.155a3.3,3.3,0,0,1,2.1.525,3.382,3.382,0,0,1,.735,2.1,2.964,2.964,0,0,1-.735,2.1,2.614,2.614,0,0,1-1.995.735l-46.41,2.625c-1.05.21-1.68.1-2.1-.42a2.566,2.566,0,0,1-.735-2.1,2.86,2.86,0,0,1,.735-2.1,3.932,3.932,0,0,1,1.995-.84L280.98-37.59v-7.455c-1.47.1-2.94.1-4.41.1-3.78,0-6.615-.84-8.4-2.73-1.89-1.68-2.73-4.41-2.73-7.98v-6.825c0-2.31.42-3.99,1.47-5.25A5.846,5.846,0,0,1,271.215-69.825Zm1.26,65.835a2.645,2.645,0,0,0,1.68,2.835,9.9,9.9,0,0,0,4.515.315,85.717,85.717,0,0,0,11.34-1.575q5.985-1.26,11.025-2.52a2.417,2.417,0,0,1,2.1.315,4.743,4.743,0,0,1,1.155,1.785,3.857,3.857,0,0,1-.105,1.89A2.347,2.347,0,0,1,302.715.42a41.85,41.85,0,0,1-5.775,1.575c-2.205.525-4.41.945-6.615,1.365-2.31.42-4.62.84-6.825,1.05a34.4,34.4,0,0,1-6.2.63c-3.57.21-6.2-.42-7.875-2.1a8.135,8.135,0,0,1-2.94-5.46c-.42-3.57.315-6.3,2.415-7.98a13.2,13.2,0,0,1,7.035-2.835l12.495-1.26a20.187,20.187,0,0,0,6.09-1.155c1.365-.525,2.1-1.365,2.1-2.52a3.406,3.406,0,0,0-.945-2.52,7.256,7.256,0,0,0-3.57-.735L270.9-20.16c-1.05.21-1.68.1-2.1-.42a2.566,2.566,0,0,1-.735-2.1,2.86,2.86,0,0,1,.735-2.1,3.933,3.933,0,0,1,2-.84l20.475-1.365c3.675-.21,6.51.42,8.505,1.785q2.835,2.2,2.835,6.93t-3.78,6.615c-2.52,1.365-6.09,2.2-10.5,2.625L277.515-7.875A9.464,9.464,0,0,0,273.84-6.72,2.608,2.608,0,0,0,272.475-3.99Zm66.57-31.71a19.583,19.583,0,0,0-.42-3.36c-.42-1.05-.84-2.2-1.365-3.255a8.667,8.667,0,0,0-2.52-2.205,8.121,8.121,0,0,0-3.57-.84,8.686,8.686,0,0,0-3.99,1.05,12.263,12.263,0,0,0-3.57,3.045,11.163,11.163,0,0,0-2.52,4.62,15.873,15.873,0,0,0-.84,5.565,12.638,12.638,0,0,0,.42,3.675,4.031,4.031,0,0,0,1.575,2.52,3.965,3.965,0,0,0,2.205,1.575,8.047,8.047,0,0,0,2.835.42,9.7,9.7,0,0,0,4.1-.945,11.424,11.424,0,0,0,3.885-2.835,12.384,12.384,0,0,0,2.835-4.2A12.013,12.013,0,0,0,339.045-35.7Zm-11.76,18.375a13.575,13.575,0,0,1-5.355-.945,8.579,8.579,0,0,1-4.1-2.73,10.532,10.532,0,0,1-2.625-4.41,16.094,16.094,0,0,1-.84-5.67,24.006,24.006,0,0,1,1.26-7.98,19.39,19.39,0,0,1,3.78-6.3,22.531,22.531,0,0,1,5.46-4.095,13.918,13.918,0,0,1,6.3-1.47,14.016,14.016,0,0,1,5.67,1.155,14.03,14.03,0,0,1,4.41,3.465,32.536,32.536,0,0,1,2.73,4.935,16.911,16.911,0,0,1,.945,5.67,17.98,17.98,0,0,1-1.365,6.825,27.031,27.031,0,0,1-3.99,5.985,18.772,18.772,0,0,1-5.775,4.2A15.417,15.417,0,0,1,327.285-17.325Zm33.285-21h12.7a3.959,3.959,0,0,1,2.205.735,3.959,3.959,0,0,1,.735,2.2,2.689,2.689,0,0,1-.735,2,3.882,3.882,0,0,1-2.205.63H360.99l1.26,19.74a4.542,4.542,0,0,1-.63,2.73,2.712,2.712,0,0,1-2.2.945,2.319,2.319,0,0,1-2.1-.84,3.437,3.437,0,0,1-.945-2.73l-2.625-41.9a3.6,3.6,0,0,1,.42-2.835,2.452,2.452,0,0,1,2.2-.945,3.022,3.022,0,0,1,2.205.945,5.649,5.649,0,0,1,.945,2.73Zm23.205-5.565a2.582,2.582,0,0,1-2.415-.42,2.166,2.166,0,0,1-1.05-1.785,2.657,2.657,0,0,1,.42-2.1,3.272,3.272,0,0,1,2.2-1.26c2.1-.315,4.41-.63,7.035-.84,2.52-.21,4.935-.315,7.035-.525a14.572,14.572,0,0,1,7.56,1.365,9.184,9.184,0,0,1,3.675,4.095,11.747,11.747,0,0,1,.42,5.775,20.555,20.555,0,0,1-2.2,5.985,95.614,95.614,0,0,1-5.565,7.875,88.949,88.949,0,0,1-6.51,7.455,2.732,2.732,0,0,1-2.31,1.05,2.932,2.932,0,0,1-2.1-.84,2.12,2.12,0,0,1-.945-1.89c-.21-.735.1-1.47.945-2.31,1.89-2,3.99-4.41,6.51-7.245a40.7,40.7,0,0,0,5.67-8.085,7,7,0,0,0,.735-5.46c-.63-1.47-2.625-2.1-5.88-2.1-1.995.105-4.2.21-6.615.42C387.87-44.415,385.665-44.1,383.775-43.89Zm41.895,5.565h12.7a3.959,3.959,0,0,1,2.205.735,3.959,3.959,0,0,1,.735,2.2,2.69,2.69,0,0,1-.735,2,3.882,3.882,0,0,1-2.205.63H426.09l1.26,19.74a4.542,4.542,0,0,1-.63,2.73,2.712,2.712,0,0,1-2.2.945,2.319,2.319,0,0,1-2.1-.84,3.437,3.437,0,0,1-.945-2.73l-2.625-41.9a3.6,3.6,0,0,1,.42-2.835,2.452,2.452,0,0,1,2.2-.945,3.022,3.022,0,0,1,2.205.945,5.649,5.649,0,0,1,.945,2.73Zm23.2-2.415a2.582,2.582,0,0,1-2.415-.42,2.166,2.166,0,0,1-1.05-1.785,2.657,2.657,0,0,1,.42-2.1,3.272,3.272,0,0,1,2.2-1.26c2.1-.315,4.2-.63,6.51-.84,2.205-.21,4.41-.315,6.51-.525,3.15-.105,5.67.315,7.35,1.26a7.7,7.7,0,0,1,3.15,3.99,11.93,11.93,0,0,1,.1,5.46,22.867,22.867,0,0,1-2.2,5.46c-1.47,2.31-3.15,4.83-5.04,7.35a71.428,71.428,0,0,1-5.985,6.93,2.732,2.732,0,0,1-2.31,1.05,2.932,2.932,0,0,1-2.1-.84,2.12,2.12,0,0,1-.945-1.89c-.21-.735.105-1.47.945-2.31,1.89-1.995,3.885-4.2,5.985-6.72a38.529,38.529,0,0,0,5.145-7.56q1.575-3.15.945-5.04-.788-1.732-5.04-1.575c-1.995.1-3.99.315-6.09.525C452.865-41.265,450.765-40.95,448.875-40.74ZM489.72-55.65a4.753,4.753,0,0,1,.735-2.835,2.259,2.259,0,0,1,2.1-.945,3.087,3.087,0,0,1,2.31.945,4.779,4.779,0,0,1,.84,2.835v44.52a3.85,3.85,0,0,1-.84,2.73,3.008,3.008,0,0,1-2.31.84,2.212,2.212,0,0,1-2.1-.84,3.866,3.866,0,0,1-.735-2.73Zm73.29,4.305a4.829,4.829,0,0,0-1.995-3.99A11.456,11.456,0,0,0,555.03-56.7a15.136,15.136,0,0,0-4.515.63,12.9,12.9,0,0,0-3.78,2,9.761,9.761,0,0,0-2.73,2.835,5.582,5.582,0,0,0-.84,3.045,4.3,4.3,0,0,0,1.89,3.885c1.26.84,3.15,1.26,5.88,1.26a16.121,16.121,0,0,0,4.515-.525,10.683,10.683,0,0,0,3.99-1.89,10.741,10.741,0,0,0,2.625-2.73A5.556,5.556,0,0,0,563.01-51.345Zm-12.075,13.86c-4.62,0-7.98-.84-10.185-2.73-2.31-1.68-3.36-4.41-3.36-7.98a11.385,11.385,0,0,1,1.26-5.25,14.473,14.473,0,0,1,3.99-4.62,24.652,24.652,0,0,1,5.67-3.15,23.092,23.092,0,0,1,6.72-1.05c4.41,0,7.875.945,10.29,2.73q3.465,2.835,3.465,8.19a11.158,11.158,0,0,1-1.365,5.25,14.38,14.38,0,0,1-3.885,4.515,17.813,17.813,0,0,1-5.88,3.15A23.622,23.622,0,0,1,550.935-37.485Zm4.095,13.02v15.54a4.47,4.47,0,0,1-.735,2.73,2.921,2.921,0,0,1-2.205.84,2.408,2.408,0,0,1-2.2-.84,3.865,3.865,0,0,1-.735-2.73V-24.15l-17.01.945a2.044,2.044,0,0,1-2-.63,2.673,2.673,0,0,1-.63-2,3.332,3.332,0,0,1,.63-2.1,3.208,3.208,0,0,1,2-.84l42-2.415a3.3,3.3,0,0,1,2.1.525,3.382,3.382,0,0,1,.735,2.1,2.964,2.964,0,0,1-.735,2.1,2.932,2.932,0,0,1-2.1.84ZM582.645-53.97a4.753,4.753,0,0,1,.735-2.835,2.452,2.452,0,0,1,2.2-.945,3.022,3.022,0,0,1,2.205.945,4.778,4.778,0,0,1,.84,2.835v43.68a3.849,3.849,0,0,1-.84,2.73,2.921,2.921,0,0,1-2.205.84,2.408,2.408,0,0,1-2.2-.84,3.865,3.865,0,0,1-.735-2.73Zm45.15-11.235a3.478,3.478,0,0,1,2.415.42A3.537,3.537,0,0,1,631.365-63a2.233,2.233,0,0,1-.315,2.1,2.319,2.319,0,0,1-2.1.84l-21.21,2.415a3.21,3.21,0,0,1-2.31-.1c-.525-.21-.84-.84-1.05-1.68a2.239,2.239,0,0,1,.21-2.205,3.932,3.932,0,0,1,1.995-.945Zm7.56,9.66a5.737,5.737,0,0,1,2.52.42,3.139,3.139,0,0,1,1.155,1.785c.21,1.05.1,1.68-.315,2.1a3.466,3.466,0,0,1-2.205.735L601.755-46.83c-1.05.21-1.785.21-2.205-.21-.63-.21-.945-.84-1.05-1.68a2.263,2.263,0,0,1,.1-2.205,3.2,3.2,0,0,1,1.995-.945ZM619.6-25.095a18.586,18.586,0,0,1-5.04-.525,8.047,8.047,0,0,1-3.675-1.785,5.57,5.57,0,0,1-2.31-2.625,7.608,7.608,0,0,1-.735-3.465,10.377,10.377,0,0,1,1.05-4.725,10.28,10.28,0,0,1,2.94-3.57,21.027,21.027,0,0,1,4.62-2.1,20.064,20.064,0,0,1,5.985-.84,18.03,18.03,0,0,1,4.935.735,17.25,17.25,0,0,1,3.675,1.89,14.96,14.96,0,0,1,2.31,2.94,7.674,7.674,0,0,1,.84,3.465,7.944,7.944,0,0,1-1.05,3.885,12.544,12.544,0,0,1-2.94,3.36,14.719,14.719,0,0,1-4.725,2.52A17.711,17.711,0,0,1,619.6-25.095Zm8.82-10.5a3.418,3.418,0,0,0-.42-1.47,10.452,10.452,0,0,0-1.05-1.155c-.525-.21-1.155-.42-1.89-.735a10.836,10.836,0,0,0-2.73-.315,19.979,19.979,0,0,0-3.885.42,11.235,11.235,0,0,0-2.73,1.26,4.2,4.2,0,0,0-1.575,1.89,4.4,4.4,0,0,0-.525,2.31,2.116,2.116,0,0,0,.315,1.155,1.852,1.852,0,0,0,.945.84,2.308,2.308,0,0,0,1.785.63,11.122,11.122,0,0,0,2.835.21,21.544,21.544,0,0,0,3.885-.315,5.962,5.962,0,0,0,2.73-1.26,6.01,6.01,0,0,0,1.68-1.575A2.932,2.932,0,0,0,628.425-35.595Zm19.53-23.73a3.6,3.6,0,0,1,.42-2.835,2.259,2.259,0,0,1,2.1-.945,3.087,3.087,0,0,1,2.31.945,9.253,9.253,0,0,1,.945,2.73l.84,15.645h10.71a3.382,3.382,0,0,1,2.1.735,3.959,3.959,0,0,1,.735,2.2,2.69,2.69,0,0,1-.735,1.995,3.332,3.332,0,0,1-2.1.63h-10.4l.63,10.395a3.955,3.955,0,0,1-.525,2.73,2.712,2.712,0,0,1-2.205.945,2.409,2.409,0,0,1-2.205-.84,3.421,3.421,0,0,1-.84-2.73ZM626.43-16.38a18.612,18.612,0,0,0-.105,2.31,14.791,14.791,0,0,0-.1,2.1,11.414,11.414,0,0,0,.1,1.89,11.408,11.408,0,0,0,.105,1.89,1.932,1.932,0,0,0,.63,1.68c.315.42,1.155.63,2.415.525,1.68,0,3.57-.21,5.775-.42,2.1-.21,4.3-.42,6.615-.84,2.31-.21,4.515-.63,6.72-1.05,2.1-.315,4.1-.63,5.775-1.05a2.891,2.891,0,0,1,2.1.525,4.4,4.4,0,0,1,1.155,1.68,4.212,4.212,0,0,1-.105,2,2.347,2.347,0,0,1-1.47,1.365,44.624,44.624,0,0,1-6.4,1.47c-2.52.42-5.145.84-7.77,1.155a72.731,72.731,0,0,1-7.98.735c-2.625.21-4.935.315-6.825.315a6.613,6.613,0,0,1-4.62-1.47,5.082,5.082,0,0,1-2-4.2,31.265,31.265,0,0,1-.21-5.355,47.487,47.487,0,0,1,.21-5.355,2.451,2.451,0,0,1,1.05-2.1,3.629,3.629,0,0,1,2.1-.735,3.887,3.887,0,0,1,1.995.735A3.388,3.388,0,0,1,626.43-16.38ZM11.13,52.33V75.64a58.853,58.853,0,0,0,10.5-1.365c3.78-.735,7.14-1.575,10.08-2.415a3.962,3.962,0,0,1,2.52.1,3.036,3.036,0,0,1,1.26,1.575,3.908,3.908,0,0,1-.21,1.89A2.381,2.381,0,0,1,33.6,76.9a34.533,34.533,0,0,1-5.25,1.68c-2.2.63-4.41,1.05-6.615,1.47-2.31.42-4.41.735-6.405.945a17.136,17.136,0,0,1-5.04.21c-1.89,0-3.255-.63-3.885-1.68a4.887,4.887,0,0,1-1.155-3.15V52.435A3.163,3.163,0,0,1,6.2,50.02a3.082,3.082,0,0,1,2-.735,3.887,3.887,0,0,1,1.995.735A3.087,3.087,0,0,1,11.13,52.33Zm37.59,9.345H61.425a3.959,3.959,0,0,1,2.205.735,3.959,3.959,0,0,1,.735,2.2,2.689,2.689,0,0,1-.735,2,3.882,3.882,0,0,1-2.205.63H49.14L50.4,86.98a4.542,4.542,0,0,1-.63,2.73,2.712,2.712,0,0,1-2.2.945,2.319,2.319,0,0,1-2.1-.84,3.437,3.437,0,0,1-.945-2.73L41.9,45.19a3.6,3.6,0,0,1,.42-2.835,2.452,2.452,0,0,1,2.205-.945,3.022,3.022,0,0,1,2.2.945,5.649,5.649,0,0,1,.945,2.73ZM89.985,71.65A15.161,15.161,0,0,1,79.8,68.185c-2.835-2.31-4.2-5.565-4.2-9.975a15.785,15.785,0,0,1,3.78-10.29,12.255,12.255,0,0,1,9.975-4.41,16.145,16.145,0,0,1,5.46.945A15.324,15.324,0,0,1,102.69,51.7a12.252,12.252,0,0,1,1.26,5.46,15.969,15.969,0,0,1-3.57,10.08Q96.6,71.65,89.985,71.65Zm-8.4-13.44a8.292,8.292,0,0,0,2,5.355c1.26,1.68,3.36,2.52,6.4,2.52a7.242,7.242,0,0,0,6.09-2.835,10.313,10.313,0,0,0,2-6.09,7.623,7.623,0,0,0-2.625-5.985,10.188,10.188,0,0,0-6.09-2.1A7.446,7.446,0,0,0,84,51.49,8.967,8.967,0,0,0,81.585,58.21Zm40.11-13.86a4.753,4.753,0,0,1,.735-2.835,2.259,2.259,0,0,1,2.1-.945,3.087,3.087,0,0,1,2.31.945,4.778,4.778,0,0,1,.84,2.835V88.87a3.85,3.85,0,0,1-.84,2.73,3.008,3.008,0,0,1-2.31.84,2.212,2.212,0,0,1-2.1-.84,3.866,3.866,0,0,1-.735-2.73Zm-50.4,42.945c-1.05.21-1.68.105-2.1-.42a2.673,2.673,0,0,1-.63-1.995,3.332,3.332,0,0,1,.63-2.1,3.932,3.932,0,0,1,1.995-.945l39.8-2.415a3.882,3.882,0,0,1,2.205.63,3.382,3.382,0,0,1,.735,2.1,2.964,2.964,0,0,1-.735,2.1,3.027,3.027,0,0,1-2.1.735Zm93.03-36.96a2.582,2.582,0,0,1-2.415-.42,2.166,2.166,0,0,1-1.05-1.785,2.657,2.657,0,0,1,.42-2.1,3.272,3.272,0,0,1,2.205-1.26c2.1-.315,4.2-.63,6.51-.84,2.205-.21,4.41-.315,6.51-.525a16.747,16.747,0,0,1,7.455,1.05,6.649,6.649,0,0,1,3.255,3.57,8.7,8.7,0,0,1,.105,4.935,19.818,19.818,0,0,1-2.415,5.25,35.086,35.086,0,0,1-5.04,5.88,73.246,73.246,0,0,1-6.405,5.565,2.867,2.867,0,0,1-2.415.735,2.492,2.492,0,0,1-1.785-.945,3.027,3.027,0,0,1-.63-2,2.7,2.7,0,0,1,1.26-2.1c2.1-1.68,4.1-3.36,5.985-5.145a30.807,30.807,0,0,0,4.725-5.67c1.26-1.89,1.575-3.36,1.05-4.41-.63-.84-2.31-1.26-5.145-1.155-2,.1-3.99.315-6.09.525C168.315,49.81,166.215,50.125,164.325,50.335Zm42.1,2.1h10.71a3.959,3.959,0,0,1,2.205.735,3.382,3.382,0,0,1,.735,2.1,2.689,2.689,0,0,1-.735,1.995A3.3,3.3,0,0,1,217.14,58h-10.4l.525,9.66a3.955,3.955,0,0,1-.525,2.73,2.712,2.712,0,0,1-2.2.945,2.617,2.617,0,0,1-2.31-.84,3.85,3.85,0,0,1-.84-2.73L199.815,38.89a3.6,3.6,0,0,1,.42-2.835,2.452,2.452,0,0,1,2.205-.945,3.087,3.087,0,0,1,2.31.945,9.252,9.252,0,0,1,.945,2.73ZM173.565,80.47c0-1.89.525-3.045,1.575-3.675a10.361,10.361,0,0,1,3.465-1.05q1.575,0,5.04-.315c2.31-.105,4.725-.21,7.245-.42,2.52-.105,4.935-.21,7.35-.42a48.041,48.041,0,0,0,5.25-.42,4.682,4.682,0,0,1,3.465,1.26,5.064,5.064,0,0,1,1.155,3.15v3.675c-.1,1.26-.21,2.52-.21,3.675v3.78a22.72,22.72,0,0,0,0,3.78,7.548,7.548,0,0,1-.945,2.52,3.634,3.634,0,0,1-2.415,1.785c-1.155.21-2.73.525-4.83.735-2.1.315-4.41.63-6.72.84-2.415.42-4.725.63-6.825.84q-3.308.473-5.04.63c-2.415.42-4.3-.1-5.565-1.575a6.117,6.117,0,0,1-1.995-4.725c-.105-1.365-.105-2.625-.105-3.78V87.61c0-1.05,0-2.1.105-3.255Zm5.88.945a27.54,27.54,0,0,0-.105,2.835,27.544,27.544,0,0,0-.1,2.835v2.73a23.756,23.756,0,0,0,.1,2.835,2.435,2.435,0,0,0,.735,2.1,2.387,2.387,0,0,0,2.205.315c1.995-.21,4.1-.525,6.2-.84,1.995-.21,3.885-.525,5.775-.735q2.52-.315,4.725-.63a14.908,14.908,0,0,0,2.94-.42c.1-2.31.21-4.725.21-7.14V79.735q-2.835.157-5.985.315c-2.205.21-4.305.42-6.3.525-2.1.21-4.1.42-5.88.525A44.339,44.339,0,0,1,179.445,81.415Zm69.3-29.19a17.277,17.277,0,0,0-.42-3.255c-.42-1.05-.84-2.1-1.365-3.15a6.872,6.872,0,0,0-2.52-2,9.839,9.839,0,0,0-3.57-.735,10.051,10.051,0,0,0-3.99.84,12.566,12.566,0,0,0-3.57,2.625,9.8,9.8,0,0,0-2.52,3.99,11.8,11.8,0,0,0-.84,4.725,10.9,10.9,0,0,0,.42,3.36,3.8,3.8,0,0,0,1.575,2.415,4.33,4.33,0,0,0,2.205,1.47,6.219,6.219,0,0,0,2.835.525,11.606,11.606,0,0,0,7.98-3.15,10.174,10.174,0,0,0,2.835-3.57A9.028,9.028,0,0,0,248.745,52.225Zm-11.76,16.38a13.575,13.575,0,0,1-5.355-.945,8.579,8.579,0,0,1-4.1-2.73,8.4,8.4,0,0,1-2.625-4.1,15.139,15.139,0,0,1-.84-5.565,18.5,18.5,0,0,1,1.26-6.93,16.782,16.782,0,0,1,3.78-5.67,19.293,19.293,0,0,1,5.46-3.885,15.343,15.343,0,0,1,6.3-1.26,14.016,14.016,0,0,1,5.67,1.155,16.817,16.817,0,0,1,4.41,3.15c.315.42.63.945.945,1.365l19.53-.84V38.89a5.668,5.668,0,0,1,.63-2.835,2.452,2.452,0,0,1,2.205-.945,3.087,3.087,0,0,1,2.31.945,5.649,5.649,0,0,1,.735,2.835V67.765a4.47,4.47,0,0,1-.735,2.73,3.008,3.008,0,0,1-2.31.84,2.408,2.408,0,0,1-2.205-.84,4.542,4.542,0,0,1-.63-2.73V60.52l-19.53.735h-.42a15.821,15.821,0,0,1-2.205,2.415,18.419,18.419,0,0,1-5.775,3.675A17.113,17.113,0,0,1,236.985,68.605Zm17.22-19.95a13.825,13.825,0,0,1,.42,3.57,17.3,17.3,0,0,1-.42,3.36l17.22-.63v-6.93ZM242.865,80.47c0-1.89.525-3.045,1.575-3.675a10.361,10.361,0,0,1,3.465-1.05q1.575,0,5.04-.315c2.31-.105,4.725-.21,7.245-.42,2.52-.105,4.935-.21,7.35-.42a48.042,48.042,0,0,0,5.25-.42,4.682,4.682,0,0,1,3.465,1.26,5.064,5.064,0,0,1,1.155,3.15v3.675c-.105,1.26-.21,2.52-.21,3.675v3.78a22.717,22.717,0,0,0,0,3.78,7.548,7.548,0,0,1-.945,2.52,3.634,3.634,0,0,1-2.415,1.785c-1.155.21-2.73.525-4.83.735-2.1.315-4.41.63-6.72.84-2.415.42-4.725.63-6.825.84q-3.307.473-5.04.63c-2.415.42-4.305-.1-5.565-1.575a6.117,6.117,0,0,1-1.995-4.725c-.1-1.365-.1-2.625-.1-3.78V87.61c0-1.05,0-2.1.1-3.255Zm5.88.945a27.544,27.544,0,0,0-.1,2.835,27.544,27.544,0,0,0-.1,2.835v2.73a23.756,23.756,0,0,0,.1,2.835,2.435,2.435,0,0,0,.735,2.1,2.387,2.387,0,0,0,2.205.315c2-.21,4.1-.525,6.195-.84,1.995-.21,3.885-.525,5.775-.735q2.52-.315,4.725-.63a14.908,14.908,0,0,0,2.94-.42c.105-2.31.21-4.725.21-7.14V79.735q-2.835.157-5.985.315c-2.2.21-4.3.42-6.3.525-2.1.21-4.1.42-5.88.525A44.339,44.339,0,0,1,248.745,81.415Zm64.89-40.005a4.627,4.627,0,0,1,.735-2.73,2.259,2.259,0,0,1,2.1-.945,3.022,3.022,0,0,1,2.205.945,5.649,5.649,0,0,1,.735,2.835v2.1l15.015-.735V38.89a5.667,5.667,0,0,1,.63-2.835,2.452,2.452,0,0,1,2.2-.945,3.087,3.087,0,0,1,2.31.945,5.648,5.648,0,0,1,.735,2.835V67.765a4.47,4.47,0,0,1-.735,2.73,3.008,3.008,0,0,1-2.31.84,2.408,2.408,0,0,1-2.2-.84,4.542,4.542,0,0,1-.63-2.73v-6.72l-15.225.63a8.262,8.262,0,0,1-1.68,3.885,8.365,8.365,0,0,1-5.565,2.52L300.72,69.34c-2.835.42-5.04,0-6.72-1.365-1.68-1.26-2.835-3.465-3.36-6.4a60.774,60.774,0,0,1-1.365-9.765c-.315-3.57-.42-7.665-.42-12.075a4.753,4.753,0,0,1,.735-2.835,2.186,2.186,0,0,1,1.995-.945,3.022,3.022,0,0,1,2.2.945,4.68,4.68,0,0,1,.84,2.73c0,3.99.105,7.77.42,11.34a8.486,8.486,0,0,0,.105,1.68l18.48-1.995Zm5.775,7.77v6.93l15.015-.63V48.55ZM295.68,58.1c.21,1.155.42,2.205.63,3.36a2.782,2.782,0,0,0,1.05,2.205,2.912,2.912,0,0,0,2.415.42l11.235-1.26A2.614,2.614,0,0,0,313,62.1a2.954,2.954,0,0,0,.63-2.1v-3.99Zm43.89,27.93a13.379,13.379,0,0,1-1.155,5.46,21.255,21.255,0,0,1-3.15,4.83,13.4,13.4,0,0,1-5.145,3.255,21.53,21.53,0,0,1-12.915.315,8.568,8.568,0,0,1-4.3-2.625,8.49,8.49,0,0,1-2.73-3.885,12.69,12.69,0,0,1-.945-5.04,15.779,15.779,0,0,1,1.05-5.88,14.777,14.777,0,0,1,3.255-5.04,13.086,13.086,0,0,1,4.935-3.465,18.748,18.748,0,0,1,6.72-1.155,17.085,17.085,0,0,1,5.775.945,21.529,21.529,0,0,1,4.515,2.73,19.447,19.447,0,0,1,3.045,4.2A15.192,15.192,0,0,1,339.57,86.035Zm-5.775,0a10.309,10.309,0,0,0-.525-3.045,17.52,17.52,0,0,0-1.68-2.52,11.594,11.594,0,0,0-2.73-1.575,12.92,12.92,0,0,0-3.675-.525,13.163,13.163,0,0,0-4.305.735,8.132,8.132,0,0,0-3.255,2.205,7.827,7.827,0,0,0-2,3.255,11.892,11.892,0,0,0-.63,3.78,6.407,6.407,0,0,0,.525,2.94,3.62,3.62,0,0,0,1.47,2.2,4.79,4.79,0,0,0,2.52,1.26,13.405,13.405,0,0,0,3.78.42,12.161,12.161,0,0,0,4.41-.735,6.933,6.933,0,0,0,3.255-2.31,14.907,14.907,0,0,0,2.1-2.94A8.6,8.6,0,0,0,333.795,86.035ZM397.845,47.5a13.235,13.235,0,0,0-.42-2.94c-.42-.84-.84-1.785-1.365-2.625a6.444,6.444,0,0,0-2.52-1.785,12.733,12.733,0,0,0-3.57-.525,9.8,9.8,0,0,0-7.56,3.15,7.748,7.748,0,0,0-2.52,3.465,9.7,9.7,0,0,0-.84,4.2,6.562,6.562,0,0,0,.42,2.625,4.076,4.076,0,0,0,1.47,2.1,4.79,4.79,0,0,0,2.52,1.26,11.465,11.465,0,0,0,3.57.42,15.136,15.136,0,0,0,4.515-.63,8.5,8.5,0,0,0,3.36-2.2,13.335,13.335,0,0,0,2.2-3.045A9.282,9.282,0,0,0,397.845,47.5ZM387.03,62.41a17.172,17.172,0,0,1-5.985-.84,9.1,9.1,0,0,1-4.2-2.31,8.765,8.765,0,0,1-2.73-3.78,12.689,12.689,0,0,1-.945-5.04,15.343,15.343,0,0,1,1.26-6.3,17.47,17.47,0,0,1,3.78-5.25,20.4,20.4,0,0,1,5.46-3.57,15.343,15.343,0,0,1,6.3-1.26,17.862,17.862,0,0,1,5.985,1.05,13.637,13.637,0,0,1,4.305,2.94,23.629,23.629,0,0,1,2.52,4.41,13.443,13.443,0,0,1,.945,5.04,14.531,14.531,0,0,1-1.155,5.775A15.271,15.271,0,0,1,399.1,58a13.58,13.58,0,0,1-5.25,3.36A20.238,20.238,0,0,1,387.03,62.41Zm31.29-28.035a4.753,4.753,0,0,1,.735-2.835,2.259,2.259,0,0,1,2.1-.945,3.087,3.087,0,0,1,2.31.945,4.779,4.779,0,0,1,.84,2.835v26.25a3.85,3.85,0,0,1-.84,2.73,3.008,3.008,0,0,1-2.31.84,2.212,2.212,0,0,1-2.1-.84,3.866,3.866,0,0,1-.735-2.73Zm-25.1,57.12c0,1.47.525,2.52,1.68,2.94a7.464,7.464,0,0,0,4.515.525,85.717,85.717,0,0,0,11.34-1.575q5.985-1.26,11.025-2.52a2.417,2.417,0,0,1,2.1.315,4.743,4.743,0,0,1,1.155,1.785,3.856,3.856,0,0,1-.1,1.89,2.347,2.347,0,0,1-1.47,1.365,41.851,41.851,0,0,1-5.775,1.575c-2.205.525-4.41.945-6.615,1.365-2.31.42-4.62.84-6.825,1.05a34.4,34.4,0,0,1-6.2.63c-3.57.21-6.2-.525-7.875-2.31a8.594,8.594,0,0,1-2.94-5.565c-.42-3.57.315-6.3,2.415-8.085a12.639,12.639,0,0,1,7.035-3.045l11.76-1.26A17.944,17.944,0,0,0,414.96,79c1.575-.735,2.415-1.785,2.415-3.15a3.093,3.093,0,0,0-1.365-2.52,9.451,9.451,0,0,0-3.885-.735L391.65,73.96c-1.05.21-1.68.105-2.1-.42a2.566,2.566,0,0,1-.735-2.1,2.86,2.86,0,0,1,.735-2.1,3.933,3.933,0,0,1,1.995-.84l20.475-1.365c3.675-.21,6.51.42,8.505,1.785q2.835,2.205,2.835,6.93a7.893,7.893,0,0,1-3.78,7.14c-2.52,1.68-6.09,2.73-10.5,3.15l-10.815,1.155a7.944,7.944,0,0,0-3.675,1.26A3,3,0,0,0,393.225,91.5Zm45.15-32.235a2.582,2.582,0,0,1-2.415-.42,2.166,2.166,0,0,1-1.05-1.785,2.657,2.657,0,0,1,.42-2.1,3.272,3.272,0,0,1,2.2-1.26c2.1-.315,4.2-.63,6.51-.84,2.205-.21,4.41-.315,6.51-.525,3.15-.105,5.67.315,7.35,1.26a7.7,7.7,0,0,1,3.15,3.99,11.93,11.93,0,0,1,.1,5.46,22.867,22.867,0,0,1-2.2,5.46c-1.47,2.31-3.15,4.83-5.04,7.35a71.428,71.428,0,0,1-5.985,6.93,2.732,2.732,0,0,1-2.31,1.05,2.932,2.932,0,0,1-2.1-.84,2.12,2.12,0,0,1-.945-1.89c-.21-.735.105-1.47.945-2.31,1.89-2,3.885-4.2,5.985-6.72a38.528,38.528,0,0,0,5.145-7.56q1.575-3.15.945-5.04-.788-1.732-5.04-1.575c-1.995.1-3.99.315-6.09.525C442.365,58.735,440.265,59.05,438.375,59.26ZM479.22,44.35a4.753,4.753,0,0,1,.735-2.835,2.259,2.259,0,0,1,2.1-.945,3.087,3.087,0,0,1,2.31.945,4.779,4.779,0,0,1,.84,2.835V88.87a3.85,3.85,0,0,1-.84,2.73,3.008,3.008,0,0,1-2.31.84,2.212,2.212,0,0,1-2.1-.84,3.866,3.866,0,0,1-.735-2.73Z" transform="translate(-2.52 71.085)" fill="#4a4281"/>
</svg>
